<?xml version="1.0" encoding="UTF-8" standalone="no"?>
<!-- Generator: Adobe Illustrator 19.2.1, SVG Export Plug-In . SVG Version: 6.00 Build 0)  -->

<svg
   xmlns:dc="http://purl.org/dc/elements/1.1/"
   xmlns:cc="http://creativecommons.org/ns#"
   xmlns:rdf="http://www.w3.org/1999/02/22-rdf-syntax-ns#"
   xmlns:svg="http://www.w3.org/2000/svg"
   xmlns="http://www.w3.org/2000/svg"
   xmlns:sodipodi="http://sodipodi.sourceforge.net/DTD/sodipodi-0.dtd"
   xmlns:inkscape="http://www.inkscape.org/namespaces/inkscape"
   version="1.2"
   id="Layer_1"
   x="0px"
   y="0px"
   viewBox="0 0 40 40"
   xml:space="preserve"
   inkscape:version="0.91 r13725"
   sodipodi:docname="contacts-img-3.svg"
   width="40"
   height="40"><metadata
     id="metadata19"><rdf:RDF><cc:Work
         rdf:about=""><dc:format>image/svg+xml</dc:format><dc:type
           rdf:resource="http://purl.org/dc/dcmitype/StillImage" /><dc:title></dc:title></cc:Work></rdf:RDF></metadata><defs
     id="defs17" /><sodipodi:namedview
     pagecolor="#ffffff"
     bordercolor="#666666"
     borderopacity="1"
     objecttolerance="10"
     gridtolerance="10"
     guidetolerance="10"
     inkscape:pageopacity="0"
     inkscape:pageshadow="2"
     inkscape:window-width="1920"
     inkscape:window-height="1017"
     id="namedview15"
     showgrid="false"
     fit-margin-top="0"
     fit-margin-left="0"
     fit-margin-right="0"
     fit-margin-bottom="0"
     inkscape:zoom="19.463917"
     inkscape:cx="13.618634"
     inkscape:cy="19.445394"
     inkscape:window-x="-8"
     inkscape:window-y="-8"
     inkscape:window-maximized="1"
     inkscape:current-layer="Layer_1" /><g
     id="g3"
     transform="matrix(0.1015625,0,0,0.1015625,0.46239408,0.28548728)"
     style="fill:#ed2931;fill-opacity:1"><path
       d="M 296,0 88,0 C 39.477,0 0,39.477 0,88 l 0,140 c 0,48.523 39.477,88 88,88 l 32,0 0,64 c 0,3.031 1.711,5.801 4.422,7.156 1.133,0.567 2.359,0.844 3.578,0.844 1.699,0 3.387,-0.543 4.801,-1.602 L 226.668,316 296,316 c 48.523,0 88,-39.477 88,-88 L 384,88 C 384,39.477 344.523,0 296,0 l 0,0 z m 72,228 c 0,39.699 -32.301,72 -72,72 l -72,0 c -1.73,0 -3.414,0.562 -4.801,1.602 L 136,364 l 0,-56 c 0,-4.418 -3.582,-8 -8,-8 l -40,0 C 48.301,300 16,267.699 16,228 L 16,88 C 16,48.301 48.301,16 88,16 l 208,0 c 39.699,0 72,32.301 72,72 l 0,140 z m 0,0"
       id="path5"
       inkscape:connector-curvature="0"
       style="fill:#ed2931;fill-opacity:1" /><path
       d="m 215.742,186.668 c -0.023,-0.023 -0.051,-0.051 -0.078,-0.074 -3.051,-2.977 -7.059,-4.614 -11.293,-4.614 -4.273,0 -8.289,1.665 -11.309,4.684 l -11.304,11.309 -33.957,-33.899 11.297,-11.297 c 3.019,-3.019 4.683,-7.047 4.683,-11.336 0,-4.293 -1.664,-8.316 -4.683,-11.336 L 119.496,90.504 c -3.019,-3.02 -7.031,-4.684 -11.297,-4.684 -4.265,0 -8.277,1.664 -11.297,4.684 l -36.8,36.801 c -1.75,1.75 -2.59,4.211 -2.278,6.668 0.199,1.547 5.457,38.465 60.516,93.519 54.988,55.07 92,60.254 93.547,60.446 0.332,0.042 0.664,0.062 0.992,0.062 2.109,0 4.148,-0.832 5.66,-2.344 l 8.438,-8.441 28.257,-28.254 c 3.075,-3.023 4.766,-7.055 4.766,-11.359 0,-4.309 -1.691,-8.34 -4.766,-11.364 l -39.492,-39.57 z m 28.192,50.965 -33.629,33.629 C 200.504,268.609 171.133,257.719 129.656,216.184 88.555,175.078 77.328,145.348 74.539,135.492 l 33.645,-33.676 39.601,39.645 -16.961,16.961 c -1.5,1.504 -2.344,3.539 -2.344,5.66 0,2.125 0.848,4.16 2.348,5.66 l 45.281,45.199 c 3.125,3.121 8.188,3.118 11.309,-0.003 l 16.953,-16.958 c 0.031,0 0.067,0.016 0.109,0.051 l 39.458,39.539 c 0.011,0.008 0.019,0.02 0.031,0.028 -0.012,0.011 -0.024,0.023 -0.035,0.035 l 0,0 z m 0,0"
       id="path7"
       inkscape:connector-curvature="0"
       style="fill:#ed2931;fill-opacity:1" /><path
       d="m 188,80 0,16 c 39.699,0 72,32.301 72,72 l 16,0 c 0,-48.523 -39.477,-88 -88,-88 l 0,0 z m 0,0"
       id="path9"
       inkscape:connector-curvature="0"
       style="fill:#ed2931;fill-opacity:1" /><path
       d="m 224,164 16,0 c 0,-28.672 -23.328,-52 -52,-52 l 0,16 c 19.852,0 36,16.148 36,36 l 0,0 z m 0,0"
       id="path11"
       inkscape:connector-curvature="0"
       style="fill:#ed2931;fill-opacity:1" /><path
       d="m 188,48 0,16 c 59.551,0 108,48.449 108,108 l 16,0 C 312,103.625 256.375,48 188,48 l 0,0 z m 0,0"
       id="path13"
       inkscape:connector-curvature="0"
       style="fill:#ed2931;fill-opacity:1" /></g></svg>