<?xml version="1.0" encoding="UTF-8" standalone="no"?>
<!-- Generator: Adobe Illustrator 19.2.1, SVG Export Plug-In . SVG Version: 6.00 Build 0)  -->

<svg
   xmlns:dc="http://purl.org/dc/elements/1.1/"
   xmlns:cc="http://creativecommons.org/ns#"
   xmlns:rdf="http://www.w3.org/1999/02/22-rdf-syntax-ns#"
   xmlns:svg="http://www.w3.org/2000/svg"
   xmlns="http://www.w3.org/2000/svg"
   xmlns:sodipodi="http://sodipodi.sourceforge.net/DTD/sodipodi-0.dtd"
   xmlns:inkscape="http://www.inkscape.org/namespaces/inkscape"
   version="1.1"
   id="Layer_1"
   x="0px"
   y="0px"
   viewBox="-49 172.796 40 40"
   xml:space="preserve"
   inkscape:version="0.91 r13725"
   sodipodi:docname="contacts-img-4.svg"
   width="40"
   height="40"><metadata
     id="metadata13"><rdf:RDF><cc:Work
         rdf:about=""><dc:format>image/svg+xml</dc:format><dc:type
           rdf:resource="http://purl.org/dc/dcmitype/StillImage" /><dc:title></dc:title></cc:Work></rdf:RDF></metadata><defs
     id="defs11" /><sodipodi:namedview
     pagecolor="#ffffff"
     bordercolor="#666666"
     borderopacity="1"
     objecttolerance="10"
     gridtolerance="10"
     guidetolerance="10"
     inkscape:pageopacity="0"
     inkscape:pageshadow="2"
     inkscape:window-width="1920"
     inkscape:window-height="1017"
     id="namedview9"
     showgrid="false"
     fit-margin-top="0"
     fit-margin-left="0"
     fit-margin-right="0"
     fit-margin-bottom="0"
     inkscape:zoom="16.841729"
     inkscape:cx="1.1343227"
     inkscape:cy="15.76447"
     inkscape:window-x="-8"
     inkscape:window-y="-8"
     inkscape:window-maximized="1"
     inkscape:current-layer="Layer_1" /><g
     id="g4141"
     transform="translate(2.6534169,-413.45894)"
     style="fill:#ed2931;fill-opacity:1"><path
       inkscape:connector-curvature="0"
       id="path3"
       d="m -21.314507,621.205 c -0.334414,0 -0.664864,-0.10479 -0.944932,-0.30837 l -7.784971,-5.65202 c -0.216425,-0.15716 -0.512421,-0.14889 -0.719687,0.0202 l -4.316211,3.51866 c -0.413984,0.33858 -0.9679,0.44885 -1.480664,0.29463 -0.513105,-0.15436 -0.914443,-0.55214 -1.073447,-1.06409 l -2.895703,-9.31232 -7.423145,-2.77054 c -0.633076,-0.23727 -1.043779,-0.82653 -1.046992,-1.50151 -0.0032,-0.67437 0.401475,-1.26697 1.03086,-1.50972 l 31.779725,-12.2597 c 0.549678,-0.21233 1.170313,-0.1074 1.619981,0.27378 0.450283,0.38171 0.655566,0.97774 0.535801,1.55551 l -5.703154,27.43323 c -0.111426,0.53663 -0.483506,0.97536 -0.995313,1.17326 -0.189082,0.0731 -0.386299,0.10903 -0.582148,0.10903 z m -9.07628,-7.46696 c 0.408516,0 0.817715,0.12544 1.165665,0.37809 l 7.785244,5.6523 c 0.08285,0.0602 0.163857,0.0426 0.204873,0.0269 0.04074,-0.0158 0.112109,-0.0569 0.132753,-0.15613 l 5.703086,-27.43316 c 0.02256,-0.10883 -0.03548,-0.17726 -0.07205,-0.20829 -0.0363,-0.0308 -0.112657,-0.0766 -0.215948,-0.0368 -2.05e-4,7e-5 -4.1e-4,1.4e-4 -5.47e-4,2e-4 l -31.779794,12.25971 c -0.114844,0.0443 -0.138633,0.13426 -0.138291,0.202 3.42e-4,0.0683 0.02502,0.15866 0.140957,0.20214 l 7.742725,2.88989 c 0.20207,0.0755 0.357861,0.24022 0.421982,0.44618 l 2.997217,9.63909 c 0.02967,0.0954 0.102607,0.13029 0.143486,0.14259 0.04067,0.0122 0.120381,0.0234 0.197217,-0.0394 l 4.317168,-3.51948 c 0.363808,-0.29641 0.808691,-0.44577 1.254257,-0.44577 z m -5.023046,0.49991 c -0.477491,0 -0.892364,-0.30994 -1.025323,-0.77622 l -1.556406,-5.46875 c -0.262431,-0.91861 0.123047,-1.91181 0.937617,-2.41466 l 14.394365,-8.86553 c 0.418428,-0.25696 0.956758,-0.15613 1.252959,0.23413 0.29586,0.38979 0.24835,0.93482 -0.110605,1.26773 l -11.878467,11.04168 c -0.297978,0.2774 -0.492461,0.65269 -0.546943,1.05615 l -0.404688,2.99865 c -0.06781,0.50668 -0.471748,0.8869 -0.982119,0.92388 -0.02693,0.002 -0.05387,0.003 -0.08039,0.003 z m 9.632656,-13.96726 -10.54498,6.49462 c -0.285059,0.17589 -0.420274,0.5237 -0.328467,0.84527 l 1.129775,3.96976 0.19626,-1.45455 c 0.09762,-0.72228 0.445361,-1.39364 0.979111,-1.89048 l 8.568301,-7.96462 z"
       style="fill:#ed2931;fill-opacity:1" /><path
       inkscape:connector-curvature="0"
       id="path5"
       d="m -20.031197,607.48151 c -0.04901,0 -0.09871,-0.005 -0.148545,-0.016 -0.376318,-0.0817 -0.615166,-0.45302 -0.533476,-0.82927 l 0.105957,-0.48809 c 0.08169,-0.37631 0.452949,-0.61523 0.829267,-0.53347 0.376319,0.0817 0.615166,0.45302 0.533477,0.82927 l -0.105957,0.48808 c -0.07089,0.32655 -0.359776,0.54947 -0.680723,0.54947 z"
       style="fill:#ed2931;fill-opacity:1" /><path
       inkscape:connector-curvature="0"
       id="path7"
       d="m -22.226148,617.59132 c -0.04901,0 -0.09871,-0.005 -0.148613,-0.016 -0.37625,-0.0817 -0.615098,-0.45302 -0.533408,-0.82927 l 1.603642,-7.38629 c 0.08162,-0.37632 0.452539,-0.61517 0.829336,-0.53348 0.37625,0.0817 0.615098,0.45302 0.533408,0.82927 l -1.603642,7.38636 c -0.07089,0.32642 -0.359707,0.54941 -0.680723,0.54941 z"
       style="fill:#ed2931;fill-opacity:1" /></g></svg>