<?xml version="1.0" encoding="UTF-8" standalone="no"?>
<!-- Generator: Adobe Illustrator 19.2.1, SVG Export Plug-In . SVG Version: 6.00 Build 0)  -->

<svg
   xmlns:dc="http://purl.org/dc/elements/1.1/"
   xmlns:cc="http://creativecommons.org/ns#"
   xmlns:rdf="http://www.w3.org/1999/02/22-rdf-syntax-ns#"
   xmlns:svg="http://www.w3.org/2000/svg"
   xmlns="http://www.w3.org/2000/svg"
   xmlns:sodipodi="http://sodipodi.sourceforge.net/DTD/sodipodi-0.dtd"
   xmlns:inkscape="http://www.inkscape.org/namespaces/inkscape"
   version="1.2"
   id="Capa_1"
   x="0px"
   y="0px"
   viewBox="-49 141 40 40"
   xml:space="preserve"
   inkscape:version="0.91 r13725"
   sodipodi:docname="contacts-img-5.svg"
   width="40"
   height="40"><metadata
     id="metadata19"><rdf:RDF><cc:Work
         rdf:about=""><dc:format>image/svg+xml</dc:format><dc:type
           rdf:resource="http://purl.org/dc/dcmitype/StillImage" /><dc:title></dc:title></cc:Work></rdf:RDF></metadata><defs
     id="defs17" /><sodipodi:namedview
     pagecolor="#ffffff"
     bordercolor="#666666"
     borderopacity="1"
     objecttolerance="10"
     gridtolerance="10"
     guidetolerance="10"
     inkscape:pageopacity="0"
     inkscape:pageshadow="2"
     inkscape:window-width="1920"
     inkscape:window-height="1017"
     id="namedview15"
     showgrid="false"
     fit-margin-top="0"
     fit-margin-left="0"
     fit-margin-right="0"
     fit-margin-bottom="0"
     inkscape:zoom="14.75"
     inkscape:cx="34.332966"
     inkscape:cy="25.155047"
     inkscape:window-x="-8"
     inkscape:window-y="-8"
     inkscape:window-maximized="1"
     inkscape:current-layer="Capa_1" /><g
     id="g4147"
     transform="translate(-9.683949,-472.1356)"
     style="fill:#ff5039;fill-opacity:1"><path
       inkscape:connector-curvature="0"
       id="path3"
       d="m -19.333,651.34785 c -10.476475,0 -19,-8.5236 -19,-19 0,-10.4764 8.523525,-19.00008 19,-19.00008 10.4764748,0 19,8.5236 19,19 0,3.70749 -1.06728,7.29934 -3.0912474,10.39051 -0.2494528,0.38328 -0.7649318,0.48737 -1.1416279,0.23954 -0.3816527,-0.24945 -0.48907,-0.76168 -0.2395397,-1.14333 1.8438285,-2.82019 2.8202647,-6.09971 2.8202647,-9.48501 C -1.9851503,622.78175 -9.7669,615 -19.333,615 c -9.5661,0 -17.34785,7.78175 -17.34785,17.34785 0,9.5661 7.78175,17.34785 17.34785,17.34785 0.456001,0 0.826114,0.37011 0.826114,0.82611 0,0.45593 -0.370113,0.82604 -0.826114,0.82604 z"
       style="fill:#ff5039;fill-opacity:1" /><path
       inkscape:connector-curvature="0"
       id="path5"
       d="m -19.333,633.17389 c -0.120583,0 -0.24287,-0.0264 -0.358496,-0.0809 -0.285853,-0.13879 -0.46754,-0.42789 -0.46754,-0.74511 l 0,-14.86959 c 0,-0.456 0.370113,-0.82611 0.826113,-0.82611 0.456001,0 0.826114,0.37011 0.826114,0.82611 l 0,13.14967 6.917688,-5.53481 c 0.358496,-0.28415 0.875679,-0.22467 1.161454,0.12887 0.284148,0.35687 0.228,0.87568 -0.12887,1.16145 l -8.260907,6.60868 c -0.148773,0.12066 -0.332164,0.18177 -0.515556,0.18177 z"
       style="fill:#ff5039;fill-opacity:1" /><path
       inkscape:connector-curvature="0"
       id="path7"
       d="m -16.028622,644.73909 c -0.456,0 -0.826114,-0.37011 -0.826114,-0.82611 l 0,-0.82604 -2.478264,0 c -0.305678,0 -0.58487,-0.16852 -0.726983,-0.43617 -0.145366,-0.26928 -0.12887,-0.59478 0.03965,-0.84757 l 3.304378,-4.95653 c 0.254409,-0.38002 0.768262,-0.48078 1.144958,-0.22962 0.378323,0.25278 0.48241,0.76493 0.229627,1.14496 l -2.446899,3.67278 1.759568,0 c 0.456,0 0.826114,0.37012 0.826114,0.82612 l 0,1.65215 c 0,0.456 -0.370036,0.82603 -0.826037,0.82603 z"
       style="fill:#ff5039;fill-opacity:1" /><path
       inkscape:connector-curvature="0"
       id="path9"
       d="m -20.98515,644.73909 -3.304378,0 c -0.333714,0 -0.636062,-0.20159 -0.763306,-0.51052 -0.127243,-0.30893 -0.05615,-0.66417 0.178435,-0.90046 l 2.13789,-2.13789 c 0.594784,-0.59641 0.925245,-1.38783 0.925245,-2.23207 0,-0.456 -0.37174,-0.82774 -0.826114,-0.82774 -0.454374,0 -0.826114,0.37012 -0.826114,0.82612 0,0.456 -0.370113,0.82611 -0.826114,0.82611 -0.456001,0 -0.826114,-0.37011 -0.826114,-0.82611 0,-1.36638 1.111889,-2.47827 2.478264,-2.47827 1.366376,0 2.478265,1.11189 2.478265,2.47827 0,1.28537 -0.50061,2.49476 -1.409281,3.40351 l -0.726906,0.7269 1.31015,0 c 0.456001,0 0.826114,0.37012 0.826114,0.82612 0,0.456 -0.370036,0.82603 -0.826036,0.82603 z"
       style="fill:#ff5039;fill-opacity:1" /><path
       inkscape:connector-curvature="0"
       id="path11"
       d="m -16.028622,653 c -0.112374,0 -0.226374,-0.0232 -0.335417,-0.071 -0.416349,-0.18502 -0.604697,-0.67409 -0.419679,-1.09043 l 6.608679,-14.86959 c 0.1850177,-0.41797 0.6724613,-0.60307 1.0904361,-0.41968 0.4163484,0.18502 0.6046965,0.67409 0.4196785,1.09044 L -15.273603,652.5093 C -15.41076,652.81823 -15.713108,653 -16.028622,653 Z"
       style="fill:#ff5039;fill-opacity:1" /><path
       inkscape:connector-curvature="0"
       id="path13"
       d="m -9.4199431,653 c -0.1239132,0 -0.2494527,-0.0281 -0.3701132,-0.0876 -0.4080617,-0.20485 -0.5733307,-0.7005 -0.3701137,-1.10864 l 2.7078913,-5.41253 -1.9676644,0 c -0.4560006,0 -0.8261139,-0.37011 -0.8261139,-0.82611 0,-0.456 0.3701133,-0.82611 0.8261139,-0.82611 l 3.3043782,0 c 0.2858523,0 0.551801,0.14869 0.703827,0.39156 0.1503222,0.24287 0.1635655,0.54855 0.034696,0.80296 L -8.68142,652.54221 C -8.826786,652.8331 -9.1175948,653 -9.4199431,653 Z"
       style="fill:#ff5039;fill-opacity:1" /></g></svg>