<?xml version="1.0" encoding="UTF-8" standalone="no"?>
<!-- Generator: Adobe Illustrator 19.2.1, SVG Export Plug-In . SVG Version: 6.00 Build 0)  -->

<svg
   xmlns:dc="http://purl.org/dc/elements/1.1/"
   xmlns:cc="http://creativecommons.org/ns#"
   xmlns:rdf="http://www.w3.org/1999/02/22-rdf-syntax-ns#"
   xmlns:svg="http://www.w3.org/2000/svg"
   xmlns="http://www.w3.org/2000/svg"
   xmlns:sodipodi="http://sodipodi.sourceforge.net/DTD/sodipodi-0.dtd"
   xmlns:inkscape="http://www.inkscape.org/namespaces/inkscape"
   version="1.2"
   id="Layer_1"
   x="0px"
   y="0px"
   viewBox="0 0 39.999999 39.999999"
   xml:space="preserve"
   inkscape:version="0.91 r13725"
   sodipodi:docname="contacts-img-2.svg"
   width="40"
   height="40"><metadata
     id="metadata13"><rdf:RDF><cc:Work
         rdf:about=""><dc:format>image/svg+xml</dc:format><dc:type
           rdf:resource="http://purl.org/dc/dcmitype/StillImage" /><dc:title></dc:title></cc:Work></rdf:RDF></metadata><defs
     id="defs11" /><sodipodi:namedview
     pagecolor="#ffffff"
     bordercolor="#666666"
     borderopacity="1"
     objecttolerance="10"
     gridtolerance="10"
     guidetolerance="10"
     inkscape:pageopacity="0"
     inkscape:pageshadow="2"
     inkscape:window-width="1920"
     inkscape:window-height="1017"
     id="namedview9"
     showgrid="false"
     fit-margin-top="0"
     fit-margin-left="0"
     fit-margin-right="0"
     fit-margin-bottom="0"
     inkscape:zoom="16.045113"
     inkscape:cx="18.221508"
     inkscape:cy="17.972863"
     inkscape:window-x="-8"
     inkscape:window-y="-8"
     inkscape:window-maximized="1"
     inkscape:current-layer="Layer_1" /><g
     id="g3"
     transform="matrix(0.93745493,0,0,0.93745493,0.49859416,0.50140584)"
     style="fill:#ed2931;fill-opacity:1"><path
       d="M 20.801,0 C 9.332,0 0,9.332 0,20.801 c 0,3.91 1.086,7.711 3.148,11.008 -0.82,2.879 -2.304,8.324 -2.32,8.382 -0.078,0.282 0.004,0.582 0.215,0.782 0.211,0.203 0.516,0.277 0.793,0.191 l 8.242,-2.535 c 3.231,1.945 6.93,2.973 10.723,2.973 11.469,0 20.801,-9.332 20.801,-20.801 C 41.602,9.332 32.27,0 20.801,0 l 0,0 z m 0,40 C 17.184,40 13.664,38.988 10.613,37.078 10.488,37 10.34,36.957 10.191,36.957 c -0.082,0 -0.16,0.012 -0.234,0.035 L 2.758,39.207 C 3.285,37.277 4.234,33.824 4.785,31.906 4.852,31.684 4.812,31.441 4.688,31.246 2.668,28.137 1.602,24.527 1.602,20.801 1.602,10.215 10.215,1.602 20.801,1.602 31.387,1.602 40,10.215 40,20.801 40,31.387 31.387,40 20.801,40 l 0,0 z m 0,0"
       id="path5"
       inkscape:connector-curvature="0"
       style="fill:#ed2931;fill-opacity:1" /><path
       d="M 34.387,25.699 C 32.91,24.879 31.652,24.059 30.734,23.457 30.035,23 29.527,22.672 29.156,22.484 c -1.035,-0.519 -1.824,-0.152 -2.121,0.149 -0.039,0.039 -0.07,0.078 -0.101,0.125 -1.079,1.613 -2.485,3.16 -2.895,3.246 -0.477,-0.074 -2.707,-1.344 -4.918,-3.188 -2.262,-1.882 -3.683,-3.687 -3.894,-4.914 1.449,-1.496 1.972,-2.433 1.972,-3.504 0,-1.101 -2.57,-5.699 -3.035,-6.164 C 13.699,7.77 12.648,7.695 11.043,8.016 10.891,8.047 10.746,8.125 10.633,8.234 10.441,8.43 5.891,13.066 8.055,18.688 c 2.371,6.167 8.461,13.339 16.226,14.503 0.883,0.133 1.711,0.2 2.485,0.2 4.566,0 7.261,-2.301 8.023,-6.86 0.055,-0.332 -0.105,-0.668 -0.402,-0.832 l 0,0 z m -9.867,5.91 C 16.309,30.379 11.137,22.242 9.547,18.113 c -1.578,-4.097 1.328,-7.75 2.058,-8.574 0.594,-0.101 1.219,-0.144 1.481,-0.101 0.543,0.757 2.43,4.32 2.516,4.96 0,0.422 -0.137,1.008 -1.766,2.637 -0.152,0.149 -0.234,0.352 -0.234,0.567 0,4.187 8.832,10 10.398,10 1.359,0 3.137,-2.289 4.145,-3.778 0.058,0 0.156,0.02 0.296,0.09 0.289,0.145 0.789,0.473 1.418,0.883 0.836,0.547 1.942,1.269 3.25,2.019 -0.593,2.856 -2.254,5.747 -8.589,4.793 l 0,0 z m 0,0"
       id="path7"
       inkscape:connector-curvature="0"
       style="fill:#ed2931;fill-opacity:1" /></g></svg>