<?xml version="1.0" encoding="UTF-8" standalone="no"?>
<!-- Generator: Adobe Illustrator 19.2.1, SVG Export Plug-In . SVG Version: 6.00 Build 0)  -->

<svg
   xmlns:dc="http://purl.org/dc/elements/1.1/"
   xmlns:cc="http://creativecommons.org/ns#"
   xmlns:rdf="http://www.w3.org/1999/02/22-rdf-syntax-ns#"
   xmlns:svg="http://www.w3.org/2000/svg"
   xmlns="http://www.w3.org/2000/svg"
   xmlns:sodipodi="http://sodipodi.sourceforge.net/DTD/sodipodi-0.dtd"
   xmlns:inkscape="http://www.inkscape.org/namespaces/inkscape"
   version="1.2"
   id="Capa_1"
   x="0px"
   y="0px"
   viewBox="-49 141 40 40"
   xml:space="preserve"
   inkscape:version="0.91 r13725"
   sodipodi:docname="contacts-img-1.svg"
   width="40"
   height="40"><metadata
     id="metadata19"><rdf:RDF><cc:Work
         rdf:about=""><dc:format>image/svg+xml</dc:format><dc:type
           rdf:resource="http://purl.org/dc/dcmitype/StillImage" /><dc:title></dc:title></cc:Work></rdf:RDF></metadata><defs
     id="defs17" /><sodipodi:namedview
     pagecolor="#ffffff"
     bordercolor="#666666"
     borderopacity="1"
     objecttolerance="10"
     gridtolerance="10"
     guidetolerance="10"
     inkscape:pageopacity="0"
     inkscape:pageshadow="2"
     inkscape:window-width="1920"
     inkscape:window-height="1017"
     id="namedview15"
     showgrid="false"
     fit-margin-top="0"
     fit-margin-left="0"
     fit-margin-right="0"
     fit-margin-bottom="0"
     inkscape:zoom="14.75"
     inkscape:cx="20.48422"
     inkscape:cy="21.307574"
     inkscape:window-x="-8"
     inkscape:window-y="-8"
     inkscape:window-maximized="1"
     inkscape:current-layer="Capa_1" /><g
     id="g4147"
     transform="translate(0.94915259,-472.8814)"
     style="fill:#ed2931;fill-opacity:1"><path
       inkscape:connector-curvature="0"
       id="path3"
       d="m -41.875,653 -1.583309,0 C -46.514191,653 -49,650.51419 -49,647.45831 l 0,-26.91662 C -49,617.48581 -46.514191,615 -43.458309,615 l 11.083309,0 c 3.055809,0 5.541691,2.48581 5.541691,5.54169 l 0,7.91669 c 0,0.437 -0.354691,0.79169 -0.791691,0.79169 -0.437,0 -0.791691,-0.35469 -0.791691,-0.79169 l 0,-7.91669 c 0,-2.18181 -1.7765,-3.95831 -3.958309,-3.95831 l -11.083309,0 c -2.181808,0 -3.958308,1.7765 -3.958308,3.95831 l 0,26.91669 c 0,2.18181 1.7765,3.95831 3.958308,3.95831 l 1.583309,0 c 0.437,0 0.791691,0.35469 0.791691,0.79169 0,0.43693 -0.354691,0.79162 -0.791691,0.79162 z"
       style="fill:#ed2931;fill-opacity:1" /><path
       inkscape:connector-curvature="0"
       id="path5"
       d="m -27.625,622.91669 -20.583309,0 c -0.437,0 -0.791691,-0.35469 -0.791691,-0.79169 0,-0.437 0.354691,-0.79169 0.791691,-0.79169 l 20.583309,0 c 0.437,0 0.791691,0.35469 0.791691,0.79169 0,0.437 -0.354691,0.79169 -0.791691,0.79169 z"
       style="fill:#ed2931;fill-opacity:1" /><path
       inkscape:connector-curvature="0"
       id="path7"
       d="m -34.75,645.08331 -13.458309,0 c -0.437,0 -0.791691,-0.35469 -0.791691,-0.79169 0,-0.437 0.354691,-0.79162 0.791691,-0.79162 l 13.458309,0 c 0.437,0 0.791691,0.35469 0.791691,0.79169 0,0.437 -0.354691,0.79162 -0.791691,0.79162 z"
       style="fill:#ed2931;fill-opacity:1" /><path
       inkscape:connector-curvature="0"
       id="path9"
       d="m -35.541691,619.75 -4.75,0 c -0.437,0 -0.791692,-0.35469 -0.791692,-0.79169 0,-0.437 0.354692,-0.79169 0.791692,-0.79169 l 4.75,0 c 0.437,0 0.791691,0.35469 0.791691,0.79169 0,0.437 -0.354691,0.79169 -0.791691,0.79169 z"
       style="fill:#ed2931;fill-opacity:1" /><path
       inkscape:connector-curvature="0"
       id="path11"
       d="m -32.343309,619.75 c -0.437,0 -0.799558,-0.35469 -0.799558,-0.79169 0,-0.437 0.34675,-0.79169 0.78375,-0.79169 l 0.01581,0 c 0.437,0 0.791692,0.35469 0.791692,0.79169 0,0.437 -0.354692,0.79169 -0.791692,0.79169 z"
       style="fill:#ed2931;fill-opacity:1" /><path
       inkscape:connector-curvature="0"
       id="path13"
       d="m -22.19575,653 -14.92925,0 c -1.309441,0 -2.375,-1.06556 -2.375,-2.375 0,-1.74644 1.303059,-3.24744 3.0305,-3.49444 l 6.3935,-1.00381 -10.779309,-10.77931 c -1.179558,-1.17956 -1.179558,-3.09856 0,-4.27656 1.189059,-1.18906 3.108059,-1.1875 4.286059,-0.01 l 2.805691,2.80569 c 0.13775,-0.46705 0.391059,-0.9088 0.76,-1.27775 1.089309,-1.0925 2.79775,-1.18119 3.982059,-0.2755 0.136191,-0.47975 0.392691,-0.931 0.767941,-1.3078 1.090942,-1.09095 2.799309,-1.17956 3.983692,-0.27395 0.133,-0.4813 0.3895,-0.93255 0.766308,-1.30944 1.189059,-1.18906 3.108059,-1.1875 4.286059,-0.01 l 5.953309,6.54231 C -11.804309,637.56094 -11,639.63981 -11,641.809 c 0,2.32275 -0.904059,4.50775 -2.547559,6.14969 l -2.490558,2.49056 C -17.68325,652.09431 -19.869809,653 -22.19575,653 Z m -16.512559,-21.242 c -0.368941,0 -0.737808,0.14094 -1.019691,0.42119 -0.571559,0.57156 -0.571559,1.48519 -0.0095,2.04725 l 11.87975,11.87975 c 0.210559,0.21056 0.285,0.5225 0.193191,0.80431 -0.09344,0.28344 -0.335691,0.49081 -0.630191,0.53675 l -7.940441,1.24769 c -0.962692,0.13931 -1.6815,0.96744 -1.6815,1.93006 0,0.437 0.354691,0.79169 0.791691,0.79169 l 14.92925,0 c 1.903191,0 3.692309,-0.741 5.038191,-2.08681 l 2.490559,-2.49056 c 1.34425,-1.34425 2.083691,-3.13025 2.083691,-5.03025 0,-1.77494 -0.658691,-3.47544 -1.850941,-4.788 l -5.928,-6.51544 c -0.53675,-0.532 -1.450309,-0.53356 -2.012441,0.0269 -0.281809,0.28181 -0.430692,0.64281 -0.430692,1.02756 0,0.38475 0.150442,0.74731 0.42275,1.01969 l 0.06806,0.0681 c 0.30875,0.30875 0.30875,0.81069 0,1.11944 -0.304,0.304 -0.79325,0.30875 -1.103559,0.0158 l 0,0 c 0,0 0,-0.002 -0.0016,-0.002 l 0,0 -0.0016,0 0,0 0,0 0,0 c 0,0 0,0 -0.0016,-0.002 l 0,0 0,0 0,0 0,0 c 0,0 0,0 -0.0016,-0.002 l 0,0 -0.0016,-0.002 c 0,0 0,0 -0.0016,-0.002 l -1.651442,-1.65144 c -0.5605,-0.5605 -1.47725,-0.5605 -2.03775,0 -0.571558,0.57156 -0.571558,1.48519 -0.0095,2.04725 l 1.651442,1.65144 c 0.14725,0.14725 0.224808,0.34994 0.224808,0.55256 0,0.20269 -0.07756,0.40531 -0.231191,0.5605 -0.30875,0.30875 -0.810692,0.30875 -1.119442,0 l -3.23475,-3.23475 c -0.5605,-0.5605 -1.47725,-0.5605 -2.03775,0 -0.571558,0.57156 -0.571558,1.48519 -0.0095,2.04725 l 3.23475,3.23475 c 0.153559,0.15356 0.231192,0.35625 0.231192,0.55894 0,0.20269 -0.07756,0.40531 -0.231192,0.5605 -0.30875,0.30875 -0.810691,0.30875 -1.119441,0 l -7.921441,-7.92159 c -0.281809,-0.28181 -0.65075,-0.42275 -1.019618,-0.42275 z"
       style="fill:#ed2931;fill-opacity:1" /></g></svg>