<?xml version="1.0" encoding="UTF-8" standalone="no"?>
<!-- Generator: Adobe Illustrator 19.2.1, SVG Export Plug-In . SVG Version: 6.00 Build 0)  -->

<svg
   xmlns:dc="http://purl.org/dc/elements/1.1/"
   xmlns:cc="http://creativecommons.org/ns#"
   xmlns:rdf="http://www.w3.org/1999/02/22-rdf-syntax-ns#"
   xmlns:svg="http://www.w3.org/2000/svg"
   xmlns="http://www.w3.org/2000/svg"
   xmlns:sodipodi="http://sodipodi.sourceforge.net/DTD/sodipodi-0.dtd"
   xmlns:inkscape="http://www.inkscape.org/namespaces/inkscape"
   version="1.1"
   id="Layer_1"
   x="0px"
   y="0px"
   viewBox="-49 141 51 51"
   xml:space="preserve"
   inkscape:version="0.91 r13725"
   sodipodi:docname="product-icon-3.svg"
   width="51"
   height="51"><metadata
     id="metadata17"><rdf:RDF><cc:Work
         rdf:about=""><dc:format>image/svg+xml</dc:format><dc:type
           rdf:resource="http://purl.org/dc/dcmitype/StillImage" /><dc:title></dc:title></cc:Work></rdf:RDF></metadata><defs
     id="defs15" /><sodipodi:namedview
     pagecolor="#ffffff"
     bordercolor="#666666"
     borderopacity="1"
     objecttolerance="10"
     gridtolerance="10"
     guidetolerance="10"
     inkscape:pageopacity="0"
     inkscape:pageshadow="2"
     inkscape:window-width="1920"
     inkscape:window-height="1017"
     id="namedview13"
     showgrid="false"
     fit-margin-top="0"
     fit-margin-left="0"
     fit-margin-right="0"
     fit-margin-bottom="0"
     inkscape:zoom="10.429825"
     inkscape:cx="39.822543"
     inkscape:cy="22.092345"
     inkscape:window-x="-8"
     inkscape:window-y="-8"
     inkscape:window-maximized="1"
     inkscape:current-layer="Layer_1"
     showguides="true"
     inkscape:guide-bbox="true"><sodipodi:guide
       position="25.491525,34.711864"
       orientation="1,0"
       id="guide4137" /><sodipodi:guide
       position="-4.4067797,24.677966"
       orientation="0,1"
       id="guide4139" /></sodipodi:namedview><g
     id="g4147"
     style="fill:#ffffff;fill-opacity:1"
     transform="matrix(0.49180328,0,0,0.49180328,-14.397856,83.076299)"><rect
       id="rect3"
       height="1.9694672"
       width="2.2576818"
       y="145.55797"
       x="-26.519253"
       style="fill:#ffffff;fill-opacity:1" /><rect
       id="rect5"
       height="2.2576818"
       width="1.9694672"
       y="163.51134"
       x="-44.472626"
       style="fill:#ffffff;fill-opacity:1" /><rect
       id="rect7"
       height="2.2576602"
       width="1.9694483"
       transform="matrix(0.70710678,-0.70710678,0.70710678,0.70710678,0,0)"
       y="97.335564"
       x="-153.45288"
       style="fill:#ffffff;fill-opacity:1" /><rect
       id="rect9"
       height="1.9694483"
       width="2.2576602"
       transform="matrix(0.70710678,-0.70710678,0.70710678,0.70710678,0,0)"
       y="79.373314"
       x="-135.49896"
       style="fill:#ffffff;fill-opacity:1" /><path
       inkscape:connector-curvature="0"
       id="path11-7"
       d="m 10.576385,186.14819 c -2.365763,-5.59617 -7.3254578,-9.55912 -13.2578775,-10.6039 l -0.7205368,-0.12009 -6.2446523,12.41725 -6.2446524,-12.41725 -0.720537,0.12009 c -5.488088,0.96072 -10.123542,4.41929 -12.669438,9.35497 l -0.900671,-3.59068 -0.516385,-0.16812 c -0.864644,-0.27621 -1.729289,-0.63647 -2.593933,-1.08081 l -0.492367,-0.25218 -4.407283,2.64196 -5.007731,-5.00773 2.641969,-4.40728 -0.252188,-0.49237 c -0.444331,-0.86464 -0.8046,-1.74129 -1.080806,-2.59393 l -0.168125,-0.51638 -4.983713,-1.24893 0,-7.08528 4.983713,-1.24893 0.168125,-0.51639 c 0.276206,-0.86464 0.636475,-1.72929 1.080806,-2.59393 l 0.252188,-0.48036 -2.641969,-4.40728 5.007731,-5.01974 4.407283,2.64197 0.492367,-0.25219 c 0.864644,-0.44433 1.741298,-0.8046 2.593933,-1.08081 l 0.516385,-0.16812 1.24893,-4.98371 7.085279,0 1.24893,4.98371 0.516385,0.16812 c 0.864644,0.27621 1.729288,0.63648 2.593932,1.08081 l 0.492367,0.25219 4.407283,-2.64197 4.0830423,4.08304 c -0.3842863,-0.036 -0.7565636,-0.06 -1.1408499,-0.06 -3.3865234,0 -6.4367954,1.48911 -8.5383614,3.83085 -2.089556,-1.51313 -4.611435,-2.34174 -7.205368,-2.34174 -6.785055,0 -12.297161,5.5121 -12.297161,12.29716 0,6.78505 5.512106,12.29716 12.297161,12.29716 3.362505,0 6.508849,-1.35701 8.826576,-3.7588 1.921432,1.96947 4.311212,3.27844 6.9171534,3.27844 6.3647418,0 11.492562,-7.72175 11.492562,-14.11051 0,-4.76755 -2.918174,-8.8626 -7.0612607,-10.6039 l 0.1200895,-0.20415 -7.1813502,-7.18135 -4.79157,2.88214 c -0.624465,-0.30022 -1.24893,-0.56442 -1.873395,-0.78058 l -1.36902,-5.42804 -10.159569,0 -1.357011,5.41603 c -0.624465,0.22817 -1.248931,0.48036 -1.873396,0.78058 l -4.79157,-2.88214 -7.18135,7.19336 2.882147,4.79157 c -0.300223,0.62446 -0.56442,1.24893 -0.780581,1.87339 L -49,159.56038 l 0,10.15957 5.416035,1.35701 c 0.22817,0.62447 0.480358,1.24893 0.780582,1.8734 l -2.882148,4.79157 7.18135,7.18135 4.79157,-2.88215 c 0.624465,0.30022 1.248931,0.56442 1.873396,0.78058 l 1.284957,5.15184 c -1.345002,4.45532 -0.91268,9.28292 1.26094,13.49806 l 0.276205,0.52839 38.704836,0 0.276205,-0.52839 c 2.485852,-4.79157 2.702013,-10.38774 0.612457,-15.32342 z m -35.966796,-11.18033 c -5.69224,0 -10.327694,-4.63545 -10.327694,-10.32769 0,-5.69224 4.635454,-10.3277 10.327694,-10.3277 2.161611,0 4.263176,0.68451 6.016483,1.94545 -0.04804,0.0841 -0.09607,0.16813 -0.144108,0.25219 -0.120089,0.19214 -0.22817,0.38429 -0.324241,0.58844 -0.108081,0.21616 -0.216161,0.43232 -0.312233,0.66049 -0.04804,0.12009 -0.09607,0.22817 -0.144107,0.34826 -0.08406,0.21616 -0.168126,0.42031 -0.22817,0.63647 -0.03603,0.0961 -0.07205,0.19215 -0.09607,0.30023 -0.09607,0.31223 -0.180134,0.63647 -0.252188,0.96071 -0.01201,0.048 -0.02402,0.10808 -0.02402,0.15612 -0.06004,0.28821 -0.09607,0.57643 -0.132098,0.86464 -0.01201,0.0961 -0.02402,0.18014 -0.02402,0.27621 -0.03603,0.34826 -0.04804,0.69652 -0.04804,1.04478 0,3.15835 1.248931,6.64095 3.290452,9.35497 -1.993486,2.07755 -4.695499,3.26643 -7.577646,3.26643 z m 25.2668241,-12.6214 c 0,5.46407 -4.3952745,12.14104 -9.5230947,12.14104 -2.1255834,0 -4.1310774,-1.16486 -5.7402764,-2.89415 l -0.420313,-0.50438 c -1.789333,-2.1496 -2.990228,-4.94768 -3.278443,-7.54162 0,-0.036 -0.01201,-0.072 -0.01201,-0.10808 -0.03603,-0.37228 -0.06004,-0.73254 -0.06004,-1.09281 0,-0.30023 0.01201,-0.58844 0.04803,-0.88866 0.01201,-0.0961 0.02402,-0.19215 0.03603,-0.27621 0.02402,-0.19214 0.04804,-0.3963 0.09607,-0.58844 0.02402,-0.10808 0.03603,-0.21616 0.06005,-0.32424 0.03603,-0.18013 0.08406,-0.34826 0.132098,-0.52839 0.03603,-0.10808 0.06004,-0.22817 0.09607,-0.33625 0.04803,-0.15612 0.10808,-0.31224 0.168125,-0.46835 0.120089,-0.31224 0.252188,-0.61246 0.396295,-0.90067 0.01201,-0.036 0.03603,-0.0721 0.04804,-0.10808 0.09607,-0.19215 0.204152,-0.37228 0.324241,-0.55242 0.02402,-0.048 0.06004,-0.0961 0.08406,-0.1441 0.120089,-0.18014 0.240179,-0.36027 0.372277,-0.5284 1.741298,-2.35375 4.515364,-3.87889 7.6496994,-3.87889 0.4083042,0 0.8286173,0.036 1.2369215,0.0841 0.084063,0.012 0.1681253,0.024 0.2521879,0.036 0.3842863,0.06 0.7685726,0.14411 1.1528589,0.25219 0.024018,0.012 0.060045,0.012 0.084063,0.024 l 0.1561163,0.048 c 3.842863,1.22492 6.6409475,4.8276 6.6409475,9.07877 z m 8.6224239,37.69608 -36.279028,0 c -1.777324,-3.78282 -2.005494,-8.07001 -0.68451,-11.99694 l 0.168125,-0.44433 c 0.03603,-0.0961 0.07205,-0.20415 0.108081,-0.31223 0.04803,-0.1321 0.08406,-0.2642 0.144107,-0.39629 2.005494,-4.75555 6.124563,-8.1781 11.084258,-9.28292 l 7.3374663,14.59087 7.3374664,-14.59087 c 4.959695,1.10482 9.0667548,4.53938 11.0842583,9.28292 1.753306,4.23915 1.645225,8.9947 -0.300224,13.14979 z"
       style="fill:#ffffff;fill-opacity:1" /><rect
       id="rect13"
       height="1.9694672"
       width="7.86586"
       y="189.23448"
       x="-1.7688141"
       style="fill:#ffffff;fill-opacity:1" /></g></svg>