<?xml version="1.0" encoding="UTF-8" standalone="no"?>
<!-- Generator: Adobe Illustrator 19.2.1, SVG Export Plug-In . SVG Version: 6.00 Build 0)  -->

<svg
   xmlns:dc="http://purl.org/dc/elements/1.1/"
   xmlns:cc="http://creativecommons.org/ns#"
   xmlns:rdf="http://www.w3.org/1999/02/22-rdf-syntax-ns#"
   xmlns:svg="http://www.w3.org/2000/svg"
   xmlns="http://www.w3.org/2000/svg"
   xmlns:sodipodi="http://sodipodi.sourceforge.net/DTD/sodipodi-0.dtd"
   xmlns:inkscape="http://www.inkscape.org/namespaces/inkscape"
   version="1.2"
   id="Layer_1"
   x="0px"
   y="0px"
   viewBox="-49 141 61 61"
   xml:space="preserve"
   inkscape:version="0.91 r13725"
   sodipodi:docname="wave-icon-3.svg"
   width="61"
   height="61"><metadata
     id="metadata15"><rdf:RDF><cc:Work
         rdf:about=""><dc:format>image/svg+xml</dc:format><dc:type
           rdf:resource="http://purl.org/dc/dcmitype/StillImage" /><dc:title></dc:title></cc:Work></rdf:RDF></metadata><defs
     id="defs13" /><sodipodi:namedview
     pagecolor="#ffffff"
     bordercolor="#666666"
     borderopacity="1"
     objecttolerance="10"
     gridtolerance="10"
     guidetolerance="10"
     inkscape:pageopacity="0"
     inkscape:pageshadow="2"
     inkscape:window-width="1920"
     inkscape:window-height="1017"
     id="namedview11"
     showgrid="false"
     fit-margin-top="0"
     fit-margin-left="0"
     fit-margin-right="0"
     fit-margin-bottom="0"
     inkscape:zoom="10.429825"
     inkscape:cx="28.311444"
     inkscape:cy="28.317691"
     inkscape:window-x="-8"
     inkscape:window-y="-8"
     inkscape:window-maximized="1"
     inkscape:current-layer="Layer_1" /><g
     id="g4143"
     transform="matrix(0.10742187,0,0,0.10742187,-40.50336,128.71644)"
     style="fill:#ec1c24;fill-opacity:1"><path
       id="path3"
       d="m 234.63,653 -55.271,0 c -19.425,0 -36.03,-16.555 -38.626,-38.509 l -2.65,-22.417 c -6.9,-2.438 -13.688,-5.253 -20.294,-8.413 l -17.73,13.979 C 82.702,611.325 59.254,611.291 45.518,597.556 L 6.436,558.474 C -7.3,544.739 -7.335,521.29 6.353,503.931 l 13.981,-17.73 c -3.158,-6.602 -5.973,-13.392 -8.411,-20.294 l -22.417,-2.651 C -32.446,460.659 -49,444.054 -49,424.63 l 0,-55.271 c 0,-19.424 16.555,-36.03 38.508,-38.626 l 22.418,-2.651 c 2.439,-6.901 5.254,-13.691 8.413,-20.293 L 6.36,290.058 C -7.327,272.7 -7.29,249.252 6.444,235.517 l 39.082,-39.082 c 13.736,-13.736 37.184,-13.77 54.543,-0.083 l 17.73,13.981 c 6.599,-3.157 13.385,-5.97 20.284,-8.408 l 2.65,-22.417 C 143.329,157.555 159.935,141 179.359,141 l 55.271,0 c 19.423,0 36.028,16.554 38.626,38.506 l 2.651,22.417 c 6.901,2.438 13.691,5.253 20.294,8.412 l 17.73,-13.981 c 17.361,-13.688 40.809,-13.651 54.543,0.083 l 39.083,39.083 c 13.732,13.734 13.77,37.182 0.085,54.541 l -13.98,17.731 c 3.157,6.601 5.972,13.39 8.412,20.293 l 22.417,2.651 0.001,0 C 446.445,333.33 463,349.935 463,369.359 l 0,55.271 c 0,19.424 -16.555,36.029 -38.507,38.626 l -22.416,2.651 c -2.438,6.902 -5.253,13.692 -8.411,20.294 l 13.981,17.731 c 13.688,17.359 13.652,40.808 -0.084,54.542 l -39.081,39.082 c -13.736,13.734 -37.184,13.77 -54.541,0.084 l -17.73,-13.979 c -6.604,3.16 -13.397,5.977 -20.304,8.416 l -2.651,22.417 C 270.658,636.446 254.053,653 234.63,653 Z M 116.575,561.886 c 1.569,0 3.147,0.369 4.598,1.121 9.327,4.831 19.128,8.894 29.129,12.075 3.74,1.189 6.438,4.457 6.899,8.355 l 3.394,28.706 c 1.406,11.89 9.473,20.856 18.765,20.856 l 55.271,0 c 9.29,0 17.357,-8.966 18.765,-20.856 l 3.396,-28.704 c 0.461,-3.897 3.159,-7.165 6.899,-8.354 10.012,-3.185 19.814,-7.248 29.137,-12.078 3.489,-1.809 7.709,-1.404 10.792,1.026 l 22.706,17.902 c 9.402,7.413 21.446,8.048 28.016,1.479 l 39.082,-39.082 c 6.57,-6.569 5.935,-18.614 -1.479,-28.017 l -17.904,-22.706 c -2.432,-3.083 -2.833,-7.305 -1.026,-10.791 4.828,-9.321 8.89,-19.121 12.073,-29.129 1.189,-3.74 4.457,-6.438 8.354,-6.899 l 28.704,-3.396 C 434.034,441.988 443,433.921 443,424.63 l 0,-55.271 c 0,-9.292 -8.967,-17.358 -20.857,-18.765 l 0.001,0 -28.706,-3.394 c -3.898,-0.46 -7.166,-3.159 -8.355,-6.899 -3.185,-10.01 -7.247,-19.81 -12.075,-29.127 -1.807,-3.487 -1.405,-7.708 1.026,-10.792 l 17.903,-22.707 c 7.411,-9.402 8.048,-21.446 1.479,-28.016 l -39.083,-39.082 c -6.569,-6.571 -18.613,-5.932 -28.017,1.48 l -22.706,17.905 c -3.084,2.432 -7.308,2.833 -10.792,1.026 -9.322,-4.829 -19.123,-8.892 -29.128,-12.073 -3.74,-1.189 -6.439,-4.457 -6.9,-8.355 l -3.396,-28.705 C 251.987,169.966 243.92,161 234.63,161 l -55.271,0 c -9.292,0 -17.358,8.967 -18.765,20.857 l -3.394,28.705 c -0.461,3.898 -3.159,7.166 -6.899,8.355 -10.005,3.183 -19.803,7.244 -29.12,12.071 -3.484,1.808 -7.707,1.406 -10.792,-1.026 L 87.683,212.057 c -9.401,-7.414 -21.447,-8.051 -28.016,-1.48 L 20.586,249.66 c -6.57,6.57 -5.935,18.614 1.479,28.016 l 17.902,22.707 c 2.432,3.083 2.833,7.305 1.026,10.792 -4.829,9.321 -8.892,19.121 -12.075,29.128 -1.189,3.74 -4.457,6.438 -8.355,6.899 l -28.706,3.394 C -20.033,352.001 -29,360.068 -29,369.359 l 0,55.271 c 0,9.291 8.966,17.358 20.855,18.765 l 28.705,3.396 c 3.897,0.461 7.165,3.159 8.354,6.899 3.184,10.008 7.245,19.808 12.073,29.129 1.807,3.486 1.405,7.708 -1.026,10.791 l -17.904,22.706 c -7.414,9.402 -8.051,21.446 -1.48,28.017 l 39.083,39.082 c 6.569,6.571 18.613,5.934 28.016,-1.479 l 22.706,-17.902 c 1.801,-1.421 3.989,-2.148 6.193,-2.148 z"
       inkscape:connector-curvature="0"
       style="fill:#ec1c24;fill-opacity:1" /><path
       id="path5"
       d="m 207,497.356 c -55.337,0 -100.356,-45.02 -100.356,-100.356 0,-55.336 45.02,-100.356 100.356,-100.356 55.336,0 100.356,45.02 100.356,100.356 0,55.337 -45.019,100.356 -100.356,100.356 z m 0,-180.712 c -44.309,0 -80.356,36.047 -80.356,80.356 0,44.309 36.048,80.356 80.356,80.356 44.308,0 80.356,-36.048 80.356,-80.356 0,-44.308 -36.047,-80.356 -80.356,-80.356 z"
       inkscape:connector-curvature="0"
       style="fill:#ec1c24;fill-opacity:1" /><path
       id="path7"
       d="m 249.943,544.906 c -4.264,0 -8.213,-2.748 -9.546,-7.033 -1.641,-5.273 1.306,-10.878 6.579,-12.519 56.478,-17.566 94.423,-69.146 94.423,-128.351 0,-5.523 4.478,-10 10,-10 5.522,0 10,4.477 10,10 0,33.601 -10.608,65.545 -30.677,92.381 -19.398,25.938 -47.031,45.495 -77.807,55.067 -0.987,0.309 -1.988,0.455 -2.972,0.455 z"
       inkscape:connector-curvature="0"
       style="fill:#ec1c24;fill-opacity:1" /><circle
       id="circle9"
       r="10"
       cy="539.23999"
       cx="204.95"
       style="fill:#ec1c24;fill-opacity:1" /></g></svg>