<?xml version="1.0" encoding="UTF-8" standalone="no"?>
<!-- Generator: Adobe Illustrator 19.2.1, SVG Export Plug-In . SVG Version: 6.00 Build 0)  -->

<svg
   xmlns:dc="http://purl.org/dc/elements/1.1/"
   xmlns:cc="http://creativecommons.org/ns#"
   xmlns:rdf="http://www.w3.org/1999/02/22-rdf-syntax-ns#"
   xmlns:svg="http://www.w3.org/2000/svg"
   xmlns="http://www.w3.org/2000/svg"
   xmlns:sodipodi="http://sodipodi.sourceforge.net/DTD/sodipodi-0.dtd"
   xmlns:inkscape="http://www.inkscape.org/namespaces/inkscape"
   version="1.1"
   id="Layer_1"
   x="0px"
   y="0px"
   viewBox="-49 141 61 61"
   xml:space="preserve"
   inkscape:version="0.91 r13725"
   sodipodi:docname="wave-icon-1.svg"
   width="61"
   height="61"><metadata
     id="metadata17"><rdf:RDF><cc:Work
         rdf:about=""><dc:format>image/svg+xml</dc:format><dc:type
           rdf:resource="http://purl.org/dc/dcmitype/StillImage" /><dc:title></dc:title></cc:Work></rdf:RDF></metadata><defs
     id="defs15" /><sodipodi:namedview
     pagecolor="#ffffff"
     bordercolor="#666666"
     borderopacity="1"
     objecttolerance="10"
     gridtolerance="10"
     guidetolerance="10"
     inkscape:pageopacity="0"
     inkscape:pageshadow="2"
     inkscape:window-width="1920"
     inkscape:window-height="1017"
     id="namedview13"
     showgrid="false"
     fit-margin-top="0"
     fit-margin-left="0"
     fit-margin-right="0"
     fit-margin-bottom="0"
     inkscape:zoom="10.429825"
     inkscape:cx="42.12313"
     inkscape:cy="28.142199"
     inkscape:window-x="-8"
     inkscape:window-y="-8"
     inkscape:window-maximized="1"
     inkscape:current-layer="Layer_1" /><g
     id="g3"
     transform="matrix(0.11250202,0,0,0.11250202,-40.959128,126.81023)"
     style="fill:#ec1c24;fill-opacity:1"><path
       d="m 313.666,631.667 -80.574,-10e-4 c 8.779,-8.429 17.921,-17.006 27.379,-25.874 C 335.402,535.537 420.332,455.91 420.33,354.331 420.332,297.349 398.142,243.777 357.848,203.483 317.555,163.19 263.984,141 207.001,141 150.018,141 96.444,163.19 56.152,203.483 15.86,243.776 -6.33,297.348 -6.329,354.331 c -0.004,101.578 84.927,181.207 159.86,251.461 9.458,8.868 18.601,17.444 27.378,25.874 l -80.576,-0.001 c -5.89,0 -10.667,4.777 -10.667,10.667 0,5.891 4.777,10.667 10.667,10.667 L 206.98,653 c 0.006,0 0.013,10e-4 0.021,10e-4 0.006,0 0.013,-10e-4 0.021,-10e-4 l 106.644,0 c 5.889,0 10.667,-4.776 10.667,-10.667 0,-5.891 -4.778,-10.666 -10.667,-10.666 z M 207.001,627.27 C 194.75,615.195 181.749,603.006 168.121,590.228 96.349,522.937 15,446.669 15.003,354.331 c -10e-4,-51.285 19.97,-99.5 56.233,-135.763 36.263,-36.263 84.479,-56.235 135.764,-56.235 51.285,0 99.5,19.971 135.762,56.235 36.264,36.263 56.236,84.478 56.233,135.763 0.002,92.337 -81.346,168.607 -153.116,235.898 -13.626,12.775 -26.628,24.967 -38.878,37.041 z"
       id="path5"
       inkscape:connector-curvature="0"
       style="fill:#ec1c24;fill-opacity:1" /><path
       d="m 305.332,291.246 c 2.035,3.188 5.482,4.929 9.002,4.929 1.963,0 3.95,-0.542 5.729,-1.677 4.964,-3.17 6.421,-9.764 3.25,-14.731 -0.785,-1.231 -1.591,-2.453 -2.415,-3.66 -3.323,-4.866 -9.961,-6.118 -14.824,-2.797 -4.864,3.321 -6.116,9.957 -2.796,14.822 0.7,1.028 1.385,2.067 2.054,3.114 z"
       id="path7"
       inkscape:connector-curvature="0"
       style="fill:#ec1c24;fill-opacity:1" /><path
       d="m 333.734,410.669 c 0.5,-1.126 0.787,-2.318 0.879,-3.521 6.94,-16.814 10.454,-34.562 10.454,-52.818 0,-14.572 -2.282,-28.984 -6.783,-42.836 -1.819,-5.603 -7.836,-8.672 -13.442,-6.848 -5.602,1.82 -8.667,7.838 -6.848,13.44 3.808,11.719 5.74,23.914 5.74,36.244 0,8.529 -0.912,16.925 -2.715,25.132 -11.257,-16.241 -25.906,-29.987 -42.946,-40.184 2.423,-6.75 4.45,-15.557 6.452,-27.714 0.319,-1.94 0.809,-4.496 1.377,-7.455 3.227,-16.833 8.107,-42.272 3.117,-58.979 -11.364,-38.044 -43.558,-62.626 -82.019,-62.629 -37.108,0 -68.379,22.891 -80.739,58.675 -21.535,15.247 -38.202,36.186 -48.206,60.611 -2.234,5.452 0.377,11.681 5.828,13.914 1.323,0.542 2.691,0.799 4.038,0.799 4.201,0 8.185,-2.498 9.875,-6.626 5.903,-14.412 14.546,-27.389 25.414,-38.301 0.867,11.529 3.119,23.32 4.885,32.536 0.567,2.959 1.058,5.516 1.377,7.456 2.002,12.156 4.029,20.961 6.452,27.712 -24.461,14.639 -44.024,36.578 -55.66,62.717 -1.229,2.762 -1.229,5.914 0,8.675 22.263,50.014 72.011,82.328 126.734,82.326 0.002,0 0.002,0 0.004,0 54.726,10e-4 104.472,-32.315 126.732,-82.326 z M 145.422,251.237 c 8.735,-29.238 32.331,-47.402 61.577,-47.402 29.25,0.002 52.846,18.165 61.58,47.402 3.498,11.708 -1.137,35.872 -3.627,48.854 -0.596,3.107 -1.11,5.792 -1.475,8.009 -4.933,29.959 -7.314,31.474 -20.527,39.878 -2.319,1.474 -4.933,3.138 -7.862,5.116 -9.381,5.356 -18.829,8.071 -28.09,8.071 -9.259,-0.001 -18.705,-2.715 -28.083,-8.069 -2.927,-1.978 -5.541,-3.641 -7.859,-5.115 -13.215,-8.405 -15.596,-9.92 -20.53,-39.882 -0.365,-2.218 -0.879,-4.901 -1.476,-8.01 -0.793,-4.131 -1.801,-9.396 -2.697,-15.03 11.767,-1.804 30.498,-5.394 45.331,-11.588 l 2.372,5.689 c 0.407,0.977 0.743,1.836 1.038,2.585 1.451,3.696 3.439,8.758 9.297,10.733 1.436,0.483 2.798,0.687 4.142,0.687 2.948,0 5.81,-0.977 9.152,-2.118 0.868,-0.297 1.845,-0.63 2.95,-0.995 8.054,-2.658 19.573,-7.802 28.704,-17.214 4.102,-4.228 4,-10.981 -0.227,-15.084 -4.229,-4.102 -10.981,-4 -15.084,0.228 -6.114,6.303 -14.293,9.901 -20.081,11.81 -0.204,0.067 -0.404,0.133 -0.601,0.199 l -6.4,-15.354 c -1.221,-2.925 -3.677,-5.156 -6.704,-6.09 -3.031,-0.933 -6.317,-0.471 -8.969,1.26 -10.675,6.962 -32.385,11.627 -47.093,13.98 -0.091,-4.833 0.241,-9.202 1.242,-12.55 z m 61.579,220.426 c -44.705,10e-4 -85.486,-25.486 -105.206,-65.33 10.113,-20.417 26.05,-37.515 45.655,-49.094 3.363,3.018 7.337,5.679 12.156,8.743 2.281,1.451 4.865,3.094 7.667,4.995 l 0.654,0.41 c 12.768,7.373 25.914,11.11 39.07,11.111 0.002,0 0.002,0 0.002,0 13.156,0 26.304,-3.739 39.075,-11.114 l 0.654,-0.41 c 2.802,-1.901 5.388,-3.546 7.67,-4.997 4.817,-3.065 8.789,-5.724 12.15,-8.739 19.606,11.58 35.543,28.677 45.656,49.094 -19.716,39.845 -60.496,65.331 -105.203,65.331 z"
       id="path9"
       inkscape:connector-curvature="0"
       style="fill:#ec1c24;fill-opacity:1" /><path
       d="m 89.614,342.792 c 0.13,-1.283 0.275,-2.564 0.445,-3.839 0.775,-5.84 -3.329,-11.203 -9.169,-11.979 -5.829,-0.778 -11.201,3.328 -11.98,9.168 -0.189,1.424 -0.359,2.899 -0.522,4.512 -0.591,5.861 3.682,11.091 9.543,11.682 0.363,0.036 0.724,0.054 1.082,0.054 5.412,0.001 10.048,-4.1 10.601,-9.598 z"
       id="path11"
       inkscape:connector-curvature="0"
       style="fill:#ec1c24;fill-opacity:1" /></g></svg>