<?xml version="1.0" encoding="UTF-8" standalone="no"?>
<!-- Generator: Adobe Illustrator 19.2.1, SVG Export Plug-In . SVG Version: 6.00 Build 0)  -->

<svg
   xmlns:dc="http://purl.org/dc/elements/1.1/"
   xmlns:cc="http://creativecommons.org/ns#"
   xmlns:rdf="http://www.w3.org/1999/02/22-rdf-syntax-ns#"
   xmlns:svg="http://www.w3.org/2000/svg"
   xmlns="http://www.w3.org/2000/svg"
   xmlns:sodipodi="http://sodipodi.sourceforge.net/DTD/sodipodi-0.dtd"
   xmlns:inkscape="http://www.inkscape.org/namespaces/inkscape"
   version="1.1"
   id="Capa_1"
   x="0px"
   y="0px"
   viewBox="-47 163.5 79.999999 79.999999"
   xml:space="preserve"
   inkscape:version="0.91 r13725"
   sodipodi:docname="whe-work-img-3.svg"
   width="80"
   height="80"><metadata
     id="metadata21"><rdf:RDF><cc:Work
         rdf:about=""><dc:format>image/svg+xml</dc:format><dc:type
           rdf:resource="http://purl.org/dc/dcmitype/StillImage" /><dc:title></dc:title></cc:Work></rdf:RDF></metadata><defs
     id="defs19" /><sodipodi:namedview
     pagecolor="#ffffff"
     bordercolor="#666666"
     borderopacity="1"
     objecttolerance="10"
     gridtolerance="10"
     guidetolerance="10"
     inkscape:pageopacity="0"
     inkscape:pageshadow="2"
     inkscape:window-width="1920"
     inkscape:window-height="1017"
     id="namedview17"
     showgrid="false"
     fit-margin-top="0"
     fit-margin-left="0"
     fit-margin-right="0"
     fit-margin-bottom="0"
     inkscape:zoom="8.0839219"
     inkscape:cx="19.108916"
     inkscape:cy="39.645806"
     inkscape:window-x="-8"
     inkscape:window-y="-8"
     inkscape:window-maximized="1"
     inkscape:current-layer="Capa_1" /><g
     id="g4149"
     style="fill:#ffffff"
     transform="translate(0,3.2391616)"><path
       style="fill:#ffffff"
       inkscape:connector-curvature="0"
       id="path3"
       d="m 26.528833,180.26835 -12.895099,0 0,-5.16433 C 13.633734,168.69583 8.422161,163.5 2.0297186,163.5 l -18.0751816,0 c -6.408188,0 -11.604015,5.21157 -11.604015,11.60402 l 0,5.16433 -12.8951,0 c -3.558354,0 -6.455422,2.89707 -6.455422,6.45543 l 0,43.86538 c 0,3.55835 2.897068,6.45542 6.455422,6.45542 l 6.455422,0 15.823657,0 22.5309979,0 15.8236571,0 6.455422,0 C 30.102932,237.04458 33,234.14751 33,230.58916 l 0,-43.86538 c -0.01575,-3.55836 -2.912812,-6.45543 -6.471167,-6.45543 z m -51.596143,-5.16433 c 0,-4.9754 4.046448,-9.03759 9.037591,-9.03759 l 18.0594376,0 c 4.9753985,0 9.0375914,4.04644 9.0375914,9.03759 l 0,5.16433 -2.5821693,0 0,-5.16433 c 0,-3.55836 -2.8970675,-6.45543 -6.4554221,-6.45543 l -18.0751816,0 c -3.558355,0 -6.455423,2.89707 -6.455423,6.45543 l 0,5.16433 -2.582169,0 0,-5.16433 0.01575,0 z m 30.9545369,5.16433 -25.7901989,0 0,-5.16433 c 0,-2.14131 1.731943,-3.87326 3.873253,-3.87326 l 18.0594376,0 c 2.1413107,0 3.8732533,1.73195 3.8732533,3.87326 l 0,5.16433 -0.015745,0 z m -46.4318049,2.58217 12.8951,0 5.164337,0 30.9545368,0 5.1643382,0 12.895099,0 c 2.141311,0 3.873253,1.73195 3.873253,3.87326 l 0,6.45542 -11.604015,0 -1.291084,0 -5.164338,0 -1.291084,0 -36.118875,0 -1.291084,0 -5.164338,0 -1.291084,0 -11.604015,0 0,-6.45542 c 0,-2.14131 1.731942,-3.87326 3.873253,-3.87326 z m 52.887227,12.8951 5.164338,0 0,5.16434 -5.164338,0 0,-5.16434 z m -43.865381,0 5.164338,0 0,5.16434 -5.164338,0 0,-5.16434 z m 15.933872,38.70105 c 0.629797,-4.17241 4.235386,-7.38438 8.5809875,-7.38438 4.3456013,0 7.96693568,3.21197 8.580988,7.38438 l -17.1619755,0 z m 19.7598893,0 c -0.6455422,-5.6052 -5.4162566,-9.96655 -11.1789018,-9.96655 -5.7783905,0 -10.5333595,4.36135 -11.1789015,9.96655 l -13.335958,0 0,-2.77111 6.486912,-1.0864 0.251919,-0.74001 c 0.283409,-0.83449 0.629797,-1.68471 1.054911,-2.51919 l 0.346388,-0.69278 -3.826018,-5.35328 5.7469,-5.7469 5.353277,3.82602 0.692777,-0.34639 c 0.834481,-0.42511 1.684708,-0.7715 2.519189,-1.05491 l 0.740012,-0.25192 1.0864,-6.48691 8.1401299,0 1.0864004,6.48691 0.7400118,0.25192 c 0.83448137,0.28341 1.68470771,0.6298 2.5191891,1.05491 l 0.692777,0.34639 5.3532769,-3.82602 5.7468999,5.7469 -3.8260181,5.35328 0.3463885,0.69278 c 0.4251136,0.83448 0.7715016,1.6847 1.0549106,2.51919 l 0.251919,0.74001 6.486912,1.0864 0,2.77111 -13.3517027,0 z m 22.3578037,0 -6.455422,0 0,-4.95966 -7.11671,-1.18087 c -0.173194,-0.47235 -0.377878,-0.94469 -0.598307,-1.41704 l 4.203897,-5.87286 -8.848652,-8.84865 -5.8728596,4.20389 c -0.472348,-0.22042 -0.94469595,-0.40936 -1.41704391,-0.5983 l -1.18086991,-7.11671 -12.50147658,0 -1.180869,7.11671 c -0.472348,0.17319 -0.944696,0.37788 -1.417044,0.5983 l -5.87286,-4.20389 -8.848652,8.84865 4.203897,5.87286 c -0.220429,0.47235 -0.409368,0.94469 -0.598307,1.41704 l -7.11671,1.18087 0,4.95966 -6.455422,0 c -2.141311,0 -3.873253,-1.73195 -3.873253,-3.87326 l 0,-34.82779 10.31293,0 0,7.74651 10.312931,0 0,-7.74651 33.5367053,0 0,7.74651 10.3129307,0 0,-7.74651 10.31293,0 0,34.82779 c 0.03149,2.14131 -1.700452,3.87326 -3.841763,3.87326 z" /><rect
       style="fill:#ffffff"
       id="rect5"
       height="2.5821688"
       width="2.5821688"
       y="186.72375"
       x="-13.463295" /><rect
       style="fill:#ffffff"
       id="rect7"
       height="2.5821688"
       width="2.5821688"
       y="186.72375"
       x="-8.2989569" /><rect
       style="fill:#ffffff"
       id="rect9"
       height="2.5821688"
       width="2.5821688"
       y="186.72375"
       x="-3.1346183" /><rect
       style="fill:#ffffff"
       id="rect11"
       height="2.5821688"
       width="2.5821688"
       y="213.80505"
       x="-8.2989569" /><rect
       style="fill:#ffffff"
       id="rect13"
       height="2.582144"
       width="2.582144"
       transform="matrix(0.70710678,-0.70710678,0.70710678,0.70710678,0,0)"
       y="139.46344"
       x="-173.31894" /><rect
       style="fill:#ffffff"
       id="rect15"
       height="2.582144"
       width="2.582144"
       transform="matrix(0.70710678,-0.70710678,0.70710678,0.70710678,0,0)"
       y="160.82544"
       x="-151.96371" /></g></svg>