<?xml version="1.0" encoding="UTF-8" standalone="no"?>
<!-- Generator: Adobe Illustrator 19.2.1, SVG Export Plug-In . SVG Version: 6.00 Build 0)  -->

<svg
   xmlns:dc="http://purl.org/dc/elements/1.1/"
   xmlns:cc="http://creativecommons.org/ns#"
   xmlns:rdf="http://www.w3.org/1999/02/22-rdf-syntax-ns#"
   xmlns:svg="http://www.w3.org/2000/svg"
   xmlns="http://www.w3.org/2000/svg"
   xmlns:sodipodi="http://sodipodi.sourceforge.net/DTD/sodipodi-0.dtd"
   xmlns:inkscape="http://www.inkscape.org/namespaces/inkscape"
   version="1.1"
   id="Capa_1"
   x="0px"
   y="0px"
   viewBox="-49 141 80 80"
   xml:space="preserve"
   inkscape:version="0.91 r13725"
   sodipodi:docname="whe-work-img-1.svg"
   width="80"
   height="80"><metadata
     id="metadata31"><rdf:RDF><cc:Work
         rdf:about=""><dc:format>image/svg+xml</dc:format><dc:type
           rdf:resource="http://purl.org/dc/dcmitype/StillImage" /><dc:title></dc:title></cc:Work></rdf:RDF></metadata><defs
     id="defs29" /><sodipodi:namedview
     pagecolor="#ffffff"
     bordercolor="#666666"
     borderopacity="1"
     objecttolerance="10"
     gridtolerance="10"
     guidetolerance="10"
     inkscape:pageopacity="0"
     inkscape:pageshadow="2"
     inkscape:window-width="1920"
     inkscape:window-height="1017"
     id="namedview27"
     showgrid="false"
     fit-margin-top="0"
     fit-margin-left="0"
     fit-margin-right="0"
     fit-margin-bottom="0"
     inkscape:zoom="7.375"
     inkscape:cx="31.074096"
     inkscape:cy="36.9713"
     inkscape:window-x="-8"
     inkscape:window-y="-8"
     inkscape:window-maximized="1"
     inkscape:current-layer="Capa_1" /><g
     id="g3"
     transform="matrix(0.15551181,0,0,0.15551181,-40.974163,119.35504)"
     style="fill:#ffffff"><rect
       x="116.9"
       y="184"
       width="65.5"
       height="16.4"
       id="rect5"
       style="fill:#ffffff" /><rect
       x="26.700001"
       y="585.5"
       width="65.5"
       height="16.4"
       id="rect7"
       style="fill:#ffffff" /><rect
       x="207"
       y="585.5"
       width="65.5"
       height="16.4"
       id="rect9"
       style="fill:#ffffff" /><rect
       x="84.099998"
       y="184"
       width="16.4"
       height="16.4"
       id="rect11"
       style="fill:#ffffff" /><path
       d="m 149.6,560.9 c -18.1,0 -32.8,14.7 -32.8,32.8 0,18.1 14.7,32.8 32.8,32.8 18.1,0 32.8,-14.7 32.8,-32.8 0,-18.1 -14.7,-32.8 -32.8,-32.8 z m 0,49.1 c -9,0 -16.4,-7.4 -16.4,-16.4 0,-9 7.3,-16.4 16.4,-16.4 9,0 16.4,7.4 16.4,16.4 0,9.1 -7.3,16.4 -16.4,16.4 z"
       id="path13"
       inkscape:connector-curvature="0"
       style="fill:#ffffff" /><path
       d="m 395.5,274.1 -73.7,0 0,-106.5 c 0,-13.6 -11,-24.6 -24.6,-24.6 l -295,0 c -13.6,0 -24.6,11 -24.6,24.6 l 0,458.8 c 0,13.6 11,24.6 24.6,24.6 l 295,0 c 13.6,0 24.6,-11 24.6,-24.6 l 0,-155.7 73.7,0 c 22.6,0 41,-18.4 41,-41 l 0,-114.6 c -0.1,-22.6 -18.5,-41 -41,-41 z m -90.2,352.3 c 0,4.5 -3.7,8.2 -8.2,8.2 l -295,0 c -4.5,0 -8.2,-3.7 -8.2,-8.2 l 0,-458.8 c 0,-4.5 3.7,-8.2 8.2,-8.2 l 295,0 c 4.5,0 8.2,3.7 8.2,8.2 l 0,106.5 -32.8,0 0,-49.2 -245.8,0 0,327.7 245.8,0 0,-81.9 32.8,0 0,155.7 z m -90.1,-155.7 0,41.6 41,-32.8 0,56.7 -213,0 0,-295 213,0 0,32.8 -41,0 c -22.6,0 -41,18.4 -41,41 l 0,114.7 c 0,22.7 18.4,41 41,41 z M 420,429.8 c 0,13.6 -11,24.6 -24.6,24.6 l -134,0 -29.9,23.9 0,-23.9 -16.4,0 c -13.6,0 -24.6,-11 -24.6,-24.6 l 0,-114.7 c 0,-13.6 11,-24.6 24.6,-24.6 l 180.3,0 c 13.6,0 24.6,11 24.6,24.6 l 0,114.7 0,0 z"
       id="path15"
       inkscape:connector-curvature="0"
       style="fill:#ffffff" /><rect
       x="215.2"
       y="323.29999"
       width="180.3"
       height="16.4"
       id="rect17"
       style="fill:#ffffff" /><rect
       x="215.2"
       y="364.20001"
       width="180.3"
       height="16.4"
       id="rect19"
       style="fill:#ffffff" /><rect
       x="297.10001"
       y="405.20001"
       width="16.4"
       height="16.4"
       id="rect21"
       style="fill:#ffffff" /><rect
       x="329.89999"
       y="405.20001"
       width="16.4"
       height="16.4"
       id="rect23"
       style="fill:#ffffff" /><rect
       x="264.39999"
       y="405.20001"
       width="16.4"
       height="16.4"
       id="rect25"
       style="fill:#ffffff" /></g></svg>