<?xml version="1.0" encoding="UTF-8" standalone="no"?>
<!-- Generator: Adobe Illustrator 19.2.1, SVG Export Plug-In . SVG Version: 6.00 Build 0)  -->

<svg
   xmlns:dc="http://purl.org/dc/elements/1.1/"
   xmlns:cc="http://creativecommons.org/ns#"
   xmlns:rdf="http://www.w3.org/1999/02/22-rdf-syntax-ns#"
   xmlns:svg="http://www.w3.org/2000/svg"
   xmlns="http://www.w3.org/2000/svg"
   xmlns:sodipodi="http://sodipodi.sourceforge.net/DTD/sodipodi-0.dtd"
   xmlns:inkscape="http://www.inkscape.org/namespaces/inkscape"
   version="1.1"
   id="Capa_1"
   x="0px"
   y="0px"
   viewBox="-49 141 80 80"
   xml:space="preserve"
   inkscape:version="0.91 r13725"
   sodipodi:docname="whe-work-img-4.svg"
   width="80"
   height="80"><metadata
     id="metadata15"><rdf:RDF><cc:Work
         rdf:about=""><dc:format>image/svg+xml</dc:format><dc:type
           rdf:resource="http://purl.org/dc/dcmitype/StillImage" /><dc:title></dc:title></cc:Work></rdf:RDF></metadata><defs
     id="defs13" /><sodipodi:namedview
     pagecolor="#ffffff"
     bordercolor="#666666"
     borderopacity="1"
     objecttolerance="10"
     gridtolerance="10"
     guidetolerance="10"
     inkscape:pageopacity="0"
     inkscape:pageshadow="2"
     inkscape:window-width="1920"
     inkscape:window-height="1017"
     id="namedview11"
     showgrid="false"
     fit-margin-top="0"
     fit-margin-left="0"
     fit-margin-right="0"
     fit-margin-bottom="0"
     inkscape:zoom="7.375"
     inkscape:cx="37.110871"
     inkscape:cy="27.964049"
     inkscape:window-x="-8"
     inkscape:window-y="-8"
     inkscape:window-maximized="1"
     inkscape:current-layer="Capa_1" /><g
     id="g4143"
     style="fill:#ffffff"><path
       inkscape:connector-curvature="0"
       id="path3"
       d="m -9.3728227,193.17035 c -2.2400613,0 -4.0624553,1.82235 -4.0624553,4.06235 0,2.24014 1.82255,4.06233 4.0624553,4.06233 2.2400613,0 4.0624548,-1.82234 4.0624548,-4.06233 0,-2.24 -1.8223935,-4.06235 -4.0624548,-4.06235 z m 0,4.99984 c -0.5170454,0 -0.9375253,-0.42047 -0.9375253,-0.93749 0,-0.51704 0.4204799,-0.93751 0.9375253,-0.93751 0.5170454,0 0.9375256,0.42047 0.9375256,0.93751 0,0.51702 -0.4206365,0.93749 -0.9375256,0.93749 z"
       style="fill:#ffffff" /><path
       inkscape:connector-curvature="0"
       id="path5"
       d="m 2.0638963,190.65911 c 0.4109487,0 0.8140847,-0.16703 1.1047177,-0.45781 0.2906329,-0.29047 0.457825,-0.69359 0.457825,-1.10469 0,-0.41094 -0.1671921,-0.81406 -0.457825,-1.10453 -0.290633,-0.29062 -0.693769,-0.45796 -1.1047177,-0.45796 -0.4109488,0 -0.8140848,0.16718 -1.10471773,0.45796 -0.29219549,0.29047 -0.45782502,0.69359 -0.45782502,1.10453 0,0.4111 0.16562953,0.81422 0.45782502,1.10469 0.29078923,0.29078 0.69376893,0.45781 1.10471773,0.45781 z"
       style="fill:#ffffff" /><path
       inkscape:connector-curvature="0"
       id="path7"
       d="m 23.187286,163.4979 -1.684577,0 -22.04029011,-22.03981 c -0.61017289,-0.61016 -1.59973119,-0.61016 -2.20974789,0 l -5.6465607,5.64639 -22.5823363,-6.05076 c -0.833616,-0.2236 -1.690515,0.27125 -1.913802,1.10484 l -5.717813,21.33934 -3.829636,0 c -3.618536,0 -6.562523,2.94374 -6.562523,6.56233 0,0.0867 0.0033,0.17282 0.0066,0.25875 -0.0036,0.043 -0.0066,0.0861 -0.0066,0.13 l 0,42.73869 c 0,4.30765 3.504627,7.81233 7.812557,7.81233 l 55.937467,0 c 0.02422,0 0.04797,-0.002 0.07219,-0.002 l 8.365229,0 C 27.495217,220.998 31,217.49348 31,213.18568 l 0,-41.87573 c -1.56e-4,-4.3078 -3.504783,-7.81217 -7.812714,-7.81217 z m 4.687629,7.81217 0,12.52233 c 0,2.04202 -1.661452,3.70328 -3.703383,3.70328 l -1.609106,0 0,-6.22593 c 0,-4.25328 -3.417125,-7.72108 -7.650053,-7.80827 l 6.879094,-6.8789 1.395976,0 c 2.584602,1.6e-4 4.687472,2.10297 4.687472,4.68749 z m -19.6242871,-2.84389 -4.9809174,4.98076 -7.405515,0 c -0.7289262,-3.35171 -3.7172891,-5.8703 -7.2844175,-5.8703 -3.567129,0 -6.555492,2.51859 -7.284418,5.8703 l -4.335275,0 18.1358082,-18.13527 c 2.0017735,1.19311 4.52152993,1.19311 6.5233034,0 l 6.6315876,6.63138 c -1.1931576,2.00157 -1.1931576,4.52156 -1.563e-4,6.52313 z m -23.6995539,4.98076 c 0.63408,-1.60577 2.200529,-2.7453 4.02886,-2.7453 1.8284873,0 3.3946239,1.13969 4.02886,2.7453 l -8.05772,0 z m -9.903396,-9.38436 -6.616744,6.61656 4.137926,-15.44263 c 1.134562,0.0183 2.263187,-0.27141 3.273996,-0.85532 1.010965,-0.58359 1.824425,-1.41343 2.377721,-2.40765 l 7.032224,1.88422 -10.205123,10.20482 z m 23.7098669,-19.29012 20.4327461,20.43216 -8.242413,8.24217 -2.8585154,0 3.7388524,-3.7389 c 0.610173,-0.61015 0.610173,-1.59953 0,-2.20969 -1.264879,-1.26484 -1.264879,-3.32265 0,-4.58748 0.610173,-0.61017 0.610173,-1.59954 0,-2.20985 l -8.5669532,-8.5667 c -0.6101729,-0.61015 -1.599575,-0.61015 -2.20990415,0 -1.26487833,1.26499 -3.32290335,1.26499 -4.58762545,0 -0.6101729,-0.61015 -1.5997312,-0.61015 -2.2097479,0 l -21.3130823,21.31262 -2.858516,0 23.4956423,-23.49496 c 1.563e-4,-1.6e-4 3.125e-4,-4.7e-4 4.688e-4,-6.3e-4 l 5.1790478,-5.17874 z m -28.6334389,-0.29594 19.330372,5.17937 -1.650358,1.65031 -10.098713,-2.70578 c -0.40048,-0.10734 -0.826898,-0.0511 -1.185658,0.15609 -0.358916,0.20719 -0.620798,0.54844 -0.727988,0.94876 -0.224381,0.83686 -0.761115,1.53639 -1.511448,1.96968 -0.750489,0.43328 -1.624732,0.54827 -2.461786,0.32406 -0.833304,-0.22343 -1.690359,0.27125 -1.913646,1.10484 l -5.464524,20.39372 -2.092558,0 7.776307,-29.02105 z m -12.161583,22.14622 2.992113,0 -1.842238,6.87483 -1.150031,0 c -1.895521,0 -3.437438,-1.54202 -3.437438,-3.43734 0,-1.89531 1.54223,-3.43749 3.437594,-3.43749 z m -3.437594,46.56478 0,-37.54042 c 1.000496,0.61781 2.177872,0.97531 3.437438,0.97531 l 57.187345,0 c 2.584758,0 4.687472,2.10281 4.687472,4.68734 l 0,6.22593 -11.2979653,0 c -0.8629924,0 -1.5625428,0.69969 -1.5625428,1.56249 0,0.86282 0.6995504,1.56251 1.5625428,1.56251 l 16.0320013,0 c 1.364568,0 2.635697,-0.40391 3.703382,-1.0961 l 0,9.84576 c 0,2.41234 -1.96271,4.37485 -4.374963,4.37485 l -32.8121475,0 c -3.6185365,0 -6.5625235,-2.94375 -6.5625235,-6.56234 0,-3.61859 2.943831,-6.56233 6.5625235,-6.56233 l 4.7354419,0 c 0.8629924,0 1.5625428,-0.69969 1.5625428,-1.5625 0,-0.86281 -0.6995504,-1.5625 -1.5625428,-1.5625 l -4.7354419,0 c -5.3417085,0 -9.6874525,4.34562 -9.6874525,9.68718 0,5.34154 4.345744,9.68717 9.6874525,9.68717 l 28.7500045,0 0,6.27749 c 0,2.56046 -2.063962,4.64842 -4.615282,4.68733 l -53.197236,0 0,-17.59513 c 0,-0.86281 -0.69955,-1.5625 -1.562543,-1.5625 -0.862992,0 -1.562542,0.69969 -1.562542,1.5625 l 0,17.58373 c -2.439286,-0.16141 -4.374964,-2.19625 -4.374964,-4.67577 z m 69.062357,4.68561 -2.190372,0 c 0.982371,-1.30625 1.565355,-2.92891 1.565355,-4.68546 l 0,-6.27749 0.937526,0 c 1.63192,0 3.14243,-0.52547 4.374963,-1.4139 l 0,7.68952 c 1.57e-4,2.58452 -2.102713,4.68733 -4.687472,4.68733 z"
       style="fill:#ffffff" /><path
       inkscape:connector-curvature="0"
       id="path9"
       d="m -39.937565,195.74801 c 0.410949,0 0.814085,-0.16719 1.104718,-0.45782 0.290633,-0.29062 0.457825,-0.69375 0.457825,-1.10468 0,-0.41093 -0.167192,-0.81406 -0.457825,-1.10468 -0.290633,-0.29048 -0.693769,-0.45782 -1.104718,-0.45782 -0.410948,0 -0.814084,0.16718 -1.104717,0.45782 -0.290633,0.29062 -0.457825,0.69375 -0.457825,1.10468 0,0.41093 0.167192,0.81406 0.457825,1.10468 0.290633,0.29063 0.693769,0.45782 1.104717,0.45782 z"
       style="fill:#ffffff" /></g></svg>